<svg xmlns="http://www.w3.org/2000/svg" viewBox="0 0 50 50">
    <path style="line-height:normal;text-indent:0;text-align:start;text-decoration-line:none;text-decoration-style:solid;text-decoration-color:#000;text-transform:none;block-progression:tb;isolation:auto;mix-blend-mode:normal" d="M 12 0 C 10.906937 0 10 0.9069372 10 2 L 10 4 L 4 4 C 3.5934848 4 3.1474249 4.0637947 2.7226562 4.359375 C 2.2978878 4.6549553 2 5.2445991 2 5.7929688 L 2 46.042969 C 2 46.543222 2.1713883 47.053937 2.5292969 47.427734 C 2.8872054 47.801531 3.4108475 48 3.9179688 48 L 46.083984 48 C 46.591028 48 47.113109 47.801494 47.470703 47.427734 C 47.828297 47.053975 48 46.543222 48 46.042969 L 48 5.7929688 C 48 5.2445991 47.702112 4.6549553 47.277344 4.359375 C 46.852575 4.0637947 46.406515 4 46 4 L 40 4 L 40 2 C 40 0.9069372 39.093063 0 38 0 L 36 0 C 34.906937 0 34 0.9069372 34 2 L 34 4 L 16 4 L 16 2 C 16 0.9069372 15.093063 0 14 0 L 12 0 z M 12 2 L 14 2 L 14 8 L 12 8 L 12 2 z M 36 2 L 38 2 L 38 8 L 36 8 L 36 2 z M 4 6 L 10 6 L 10 8 C 10 9.0930628 10.906937 10 12 10 L 14 10 C 15.093063 10 16 9.0930628 16 8 L 16 6 L 34 6 L 34 8 C 34 9.0930628 34.906937 10 36 10 L 38 10 C 39.093063 10 40 9.0930628 40 8 L 40 6 L 46 6 L 46 13 L 4 13 L 4 6 z M 4 15 L 46 15 L 46 46 L 4 46 L 4 15 z M 24.626953 23.425781 C 24.554953 23.809781 24.401969 24.134438 24.167969 24.398438 C 23.933969 24.662437 23.650312 24.878875 23.320312 25.046875 C 22.990313 25.214875 22.622844 25.33425 22.214844 25.40625 C 21.806844 25.47825 21.385125 25.513672 20.953125 25.513672 L 20.953125 27.134766 L 24.050781 27.134766 L 24.050781 36.025391 L 26.300781 36.025391 L 26.300781 23.425781 L 24.626953 23.425781 z" color="#000" font-weight="400" font-family="sans-serif" white-space="normal" overflow="visible"></path>
</svg>
